<svg width="38" height="38" viewBox="0 0 38 38" fill="none" xmlns="http://www.w3.org/2000/svg">
<path d="M6.33398 9.5H31.6673L29.1657 32.015C29.0799 32.7898 28.7113 33.5058 28.1305 34.0259C27.5498 34.5459 26.7976 34.8334 26.018 34.8333H11.9833C11.2037 34.8334 10.4515 34.5459 9.87075 34.0259C9.28996 33.5058 8.9214 32.7898 8.83565 32.015L6.33398 9.5Z" stroke="#98999B" stroke-width="2" stroke-linecap="round" stroke-linejoin="round"/>
<path d="M11.6296 4.98275C11.8857 4.43962 12.291 3.9805 12.7981 3.65894C13.3052 3.33739 13.8933 3.16666 14.4938 3.16667H23.5062C24.1069 3.16636 24.6954 3.33695 25.2028 3.65852C25.7103 3.98009 26.1158 4.43937 26.372 4.98275L28.5 9.5H9.5L11.6296 4.98275Z" stroke="#98999B" stroke-width="2" stroke-linecap="round" stroke-linejoin="round"/>
<path d="M3.16699 9.5H34.8337" stroke="#98999B" stroke-width="2" stroke-linecap="round" stroke-linejoin="round"/>
<path d="M15.834 17.4167V25.3333" stroke="#98999B" stroke-width="2" stroke-linecap="round" stroke-linejoin="round"/>
<path d="M22.167 17.4167V25.3333" stroke="#98999B" stroke-width="2" stroke-linecap="round" stroke-linejoin="round"/>
</svg>
