<svg width="46" height="46" viewBox="0 0 46 46" fill="none" xmlns="http://www.w3.org/2000/svg">
<path d="M38.4242 31.5738C36.117 28.75 34.4882 27.3125 34.4882 19.5275C34.4882 12.3984 30.8477 9.85855 27.8514 8.625C27.4534 8.46148 27.0787 8.08594 26.9575 7.67715C26.4319 5.88836 24.9584 4.3125 22.9998 4.3125C21.0412 4.3125 19.5669 5.88926 19.0467 7.67895C18.9254 8.09223 18.5508 8.46148 18.1528 8.625C15.1529 9.86035 11.516 12.3913 11.516 19.5275C11.5115 27.3125 9.88265 28.75 7.57546 31.5738C6.61952 32.7436 7.45686 34.5 9.12886 34.5H36.8798C38.5428 34.5 39.3748 32.7382 38.4242 31.5738Z" stroke="#5B5C5E" stroke-width="3" stroke-linecap="round" stroke-linejoin="round"/>
<path d="M28.75 34.5V35.9375C28.75 37.4625 28.1442 38.925 27.0659 40.0034C25.9875 41.0817 24.525 41.6875 23 41.6875C21.475 41.6875 20.0125 41.0817 18.9341 40.0034C17.8558 38.925 17.25 37.4625 17.25 35.9375V34.5" stroke="#5B5C5E" stroke-width="3" stroke-linecap="round" stroke-linejoin="round"/>
</svg>
