<svg width="46" height="46" viewBox="0 0 46 46" fill="none" xmlns="http://www.w3.org/2000/svg">
<path fill-rule="evenodd" clip-rule="evenodd" d="M12.9375 37.375C12.9375 35.7872 14.2247 34.5 15.8125 34.5C17.4003 34.5 18.6875 35.7872 18.6875 37.375C18.6875 38.9628 17.4003 40.25 15.8125 40.25C14.2247 40.25 12.9375 38.9628 12.9375 37.375Z" fill="#5B5C5E"/>
<path fill-rule="evenodd" clip-rule="evenodd" d="M33.0625 37.375C33.0625 35.7872 34.3497 34.5 35.9375 34.5C37.5253 34.5 38.8125 35.7872 38.8125 37.375C38.8125 38.9628 37.5253 40.25 35.9375 40.25C34.3497 40.25 33.0625 38.9628 33.0625 37.375Z" fill="#5B5C5E"/>
<path fill-rule="evenodd" clip-rule="evenodd" d="M2.875 7.1875C2.875 6.39359 3.51859 5.75 4.3125 5.75H10.0625C10.76 5.75 11.3569 6.25076 11.4781 6.93768L15.581 30.1875H37.375C38.1689 30.1875 38.8125 30.8311 38.8125 31.625C38.8125 32.4189 38.1689 33.0625 37.375 33.0625H14.375C13.6775 33.0625 13.0806 32.5617 12.9594 31.8748L8.85646 8.625H4.3125C3.51859 8.625 2.875 7.98141 2.875 7.1875Z" fill="#5B5C5E"/>
<path fill-rule="evenodd" clip-rule="evenodd" d="M39.3731 10.0625C39.6919 10.0624 40.0068 10.1331 40.2951 10.2693C40.5837 10.4057 40.8383 10.6045 41.0408 10.8512C41.2432 11.098 41.3883 11.3866 41.4656 11.6963C41.5429 12.0059 41.5506 12.3288 41.488 12.6417C41.488 12.6418 41.488 12.6419 41.4879 12.6419L38.9004 25.5794C38.8026 26.0684 38.5382 26.5083 38.1525 26.8243C37.7667 27.1403 37.2833 27.3128 36.7846 27.3125L36.7856 25.875V27.3125H36.7846H14.375C13.5811 27.3125 12.9375 26.6689 12.9375 25.875C12.9375 25.0811 13.5811 24.4375 14.375 24.4375H36.1969L36.0814 25.0152L36.0813 25.0154L36.7861 25.1564L36.7862 25.1564L37.4909 25.2973L36.7861 25.1563L36.7856 25.1561L36.0814 25.0152C36.114 24.8522 36.2021 24.7055 36.3307 24.6002C36.459 24.4951 36.6197 24.4376 36.7856 24.4375H36.1969L38.4969 12.9375H39.3731C39.2671 12.9374 39.1624 12.9139 39.0665 12.8686C38.9703 12.8231 38.8854 12.7568 38.8179 12.6746C38.7504 12.5923 38.7021 12.4961 38.6763 12.3929C38.6506 12.2899 38.648 12.1824 38.6687 12.0783L38.4969 12.9375H11.5C10.7061 12.9375 10.0625 12.2939 10.0625 11.5C10.0625 10.7061 10.7061 10.0625 11.5 10.0625H39.3727C39.3725 10.0625 39.3723 10.0625 39.3721 10.0625L39.3731 11.5V10.0625Z" fill="#5B5C5E"/>
</svg>
