<svg width="80" height="80" viewBox="0 0 80 80" fill="none" xmlns="http://www.w3.org/2000/svg">
<path d="M40.4531 7.5C22.175 7.25312 7.25309 22.175 7.49997 40.4531C7.74372 57.9828 22.0172 72.2562 39.5468 72.5C57.8281 72.75 72.7468 57.8281 72.4968 39.55C72.2562 22.0172 57.9828 7.74375 40.4531 7.5ZM60.2062 58.6328C60.144 58.7001 60.0677 58.7529 59.9828 58.7874C59.8978 58.822 59.8064 58.8374 59.7148 58.8326C59.6233 58.8279 59.5339 58.803 59.453 58.7598C59.3721 58.7167 59.3017 58.6562 59.2468 58.5828C57.8493 56.7543 56.1377 55.1888 54.1921 53.9594C50.214 51.4062 45.1734 50 40 50C34.8265 50 29.7859 51.4062 25.8078 53.9594C23.8623 55.1882 22.1507 56.7532 20.7531 58.5812C20.6982 58.6547 20.6278 58.7151 20.5469 58.7583C20.4661 58.8014 20.3767 58.8263 20.2851 58.8311C20.1936 58.8358 20.1021 58.8204 20.0172 58.7859C19.9322 58.7513 19.856 58.6986 19.7937 58.6312C15.2088 53.6818 12.6117 47.2145 12.5 40.4688C12.2453 25.2641 24.7218 12.5375 39.9328 12.5C55.1437 12.4625 67.5 24.8141 67.5 40C67.5052 46.9084 64.9 53.5638 60.2062 58.6328Z" fill="#5B5C5E"/>
<path d="M40 22.5C36.9188 22.5 34.1328 23.6547 32.1531 25.7531C30.1735 27.8516 29.1844 30.7531 29.4078 33.8672C29.861 40 34.6125 45 40 45C45.3875 45 50.1297 40 50.5922 33.8687C50.8235 30.7844 49.8422 27.9094 47.8297 25.7719C45.8422 23.6625 43.061 22.5 40 22.5Z" fill="#5B5C5E"/>
</svg>
